<?xml version="1.0" encoding="utf-8"?>
<!-- Generator: Adobe Illustrator 24.3.0, SVG Export Plug-In . SVG Version: 6.00 Build 0)  -->
<svg version="1.1" id="Layer_1" xmlns="http://www.w3.org/2000/svg" xmlns:xlink="http://www.w3.org/1999/xlink" x="0px" y="0px"
	 viewBox="0 0 259 192" style="enable-background:new 0 0 259 192;" xml:space="preserve">
<style type="text/css">
	.st0{fill:#FFFFFF;}
</style>
<g>
	<path class="st0" d="M130.5,23.1c18.4,0.2,34.7,2,44.8,4.7c1.3,0.3,2.5,0.7,3.6,1.1c-0.6-1.2-1.8-2.4-3.5-3.5
		c-8.3-5.3-28.2-9.2-51.6-9.4c-30.8-0.3-55.9,5.8-56,13.7c-0.1,7.9,24.8,14.5,55.7,14.9c8,0.1,15.6-0.3,22.5-1
		c-4.9,0.2-10.2,0.3-15.6,0.3c-30.7-0.3-55.5-5.2-55.5-10.9C74.9,27.2,99.8,22.8,130.5,23.1z"/>
</g>
<g>
	<path class="st0" d="M130.2,37.7c18.3,0.2,34.4,1.7,44.5,4c1.3,0.3,2.5,0.6,3.6,0.9c-0.6-1-1.8-1.9-3.5-2.8
		c-8.2-4.4-28-7.6-51.3-7.9C92.8,31.5,67.9,36.5,67.9,43c-0.1,6.5,24.7,12,55.3,12.3c7.9,0.1,15.5-0.2,22.3-0.8
		c-4.9,0.2-10.1,0.2-15.5,0.2c-30.5-0.3-55.2-4.4-55.1-9.1C75,40.9,99.7,37.4,130.2,37.7z"/>
</g>
<g>
	<path class="st0" d="M130.1,52.1c18.2,0.2,34.4,1.5,44.4,3.3c1.3,0.2,2.5,0.5,3.5,0.7c-0.6-0.8-1.8-1.6-3.5-2.3
		c-8.2-3.6-28-6.2-51.2-6.5C92.7,47,67.9,51,67.9,56.3c-0.1,5.3,24.7,9.8,55.2,10.1c7.9,0.1,15.5-0.1,22.3-0.6
		c-4.9,0.1-10.1,0.2-15.5,0.1c-30.4-0.3-55.1-3.7-55-7.5C74.9,54.6,99.6,51.8,130.1,52.1z"/>
</g>
<g>
	<path class="st0" d="M128,62.8c9.2,0.1,17.4,1.2,22.5,2.9c0.6,0.2,1.2,0.4,1.8,0.7c-0.3-0.7-0.9-1.5-1.8-2.2
		c-4.1-3.3-14.2-5.7-25.9-5.9c-15.5-0.2-28.1,3.7-28.1,8.7c-0.1,5,12.5,9.1,27.9,9.3c4,0,7.8-0.2,11.3-0.6c-2.5,0.1-5.1,0.2-7.8,0.2
		C112.5,75.7,100,72.6,100,69C100.1,65.4,112.6,62.6,128,62.8z"/>
</g>
<path class="st0" d="M34.4,142.4v-71h-5.1v-2.3h15v25.4h0.2c1.7-4.4,5.8-7.6,11.8-7.6c12.7,0,21,11.7,21,27.8
	c0,16.1-9.6,29.5-22,29.5c-6.6,0-11.1-3.2-14.3-9.3l-3.8,7.6H34.4z M66.3,115.5c0-17-4.7-25.6-11.7-25.6c-5.4,0-10.5,5-10.5,26.9
	c0,21,4.8,25,10.3,25C61.3,141.8,66.3,133.5,66.3,115.5z"/>
<path class="st0" d="M99.6,140.1h5.1v2.3H84.6v-2.3h5.1V71.4h-5.1v-2.3h15V140.1z"/>
<path class="st0" d="M127.3,140.1h5.1v2.3h-20.1v-2.3h5.1V90.9h-5.1v-2.3h15V140.1z M122.3,70.6c3.4,0,6,2.4,6,6c0,3.6-2.6,6-6,6
	c-3.4,0-6-2.4-6-6C116.3,73,118.9,70.6,122.3,70.6z"/>
<g>
	<path class="st0" d="M206.8,173.2h-8c-11.9,0-17.2-3.9-17.2-9.6v-6.9c-27.2-2.5-45.4-19.2-45.4-45.1c0-27.9,21.1-45.1,52.1-45.1
		c31.1,0,52.2,17.2,52.2,45.1c0,25.9-18.2,42.7-45.8,45.1v7.1c0,4.7,3.5,6.6,9.8,6.6h2.2V173.2z M188.4,154
		c25.2,0,37.4-14.7,37.4-42.4s-12.3-42.4-37.4-42.4c-25.2,0-37.4,14.7-37.4,42.4S163.2,154,188.4,154z"/>
</g>
</svg>
