<?xml version="1.0" encoding="utf-8"?>
<!-- Generator: Adobe Illustrator 24.3.0, SVG Export Plug-In . SVG Version: 6.00 Build 0)  -->
<svg version="1.1" id="Capa_1" xmlns="http://www.w3.org/2000/svg" xmlns:xlink="http://www.w3.org/1999/xlink" x="0px" y="0px"
	 viewBox="0 0 612 612" style="enable-background:new 0 0 612 612;" xml:space="preserve">
<style type="text/css">
	.st0{fill:#0033A0;}
</style>
<g>
	<path class="st0" d="M578.8,51.5v-0.9h-3H35.9h-3v0.9C15.3,52.7,2.1,66.8,0,83.8v3v355.7c0,6.9,1.8,12.7,4.8,17.9
		c6.9,12.1,17.1,18.3,31.1,18.3h197v49.7h-37.4c-9.3,0-16.5,7.2-16.5,16.5c0,9.3,7.2,16.5,16.5,16.5h220.7c9.3,0,16.8-7.2,16.8-16.5
		c0-9.3-7.5-16.5-16.8-16.5h-37.4v-49.7h197c14.1,0,24.3-6.1,31.1-18.3c3.1-5.5,5.1-11.4,5.1-17.9V86.8v-3
		C609.9,66.8,595.8,52.7,578.8,51.5z M578.8,86.8v355.7c0,2.1-0.9,3-3,3H35.9c-2.1,0-3-0.9-3-3V86.8v-3h545.8L578.8,86.8L578.8,86.8
		z"/>
</g>
<g>
	<g>
		<path class="st0" d="M226.9,355v59.3h158.2V355v-39.6H226.9V355z M246.7,335.2h118.7V355H246.7V335.2z M246.7,374.8h118.7v19.8
			H246.7V374.8z"/>
		<polygon class="st0" points="385.1,177 385.1,117.6 226.9,117.6 226.9,177 226.9,216.5 385.1,216.5 		"/>
		<path class="st0" d="M424.7,177h-19.8v39.6v19.8H207.1v-19.8V177h-19.8c-19.8,0-39.6,19.8-39.6,39.6v98.9
			c0,19.8,19.8,39.6,39.6,39.6h19.8v-39.6v-19.8h197.8v19.8V355h19.8c19.8,0,39.6-19.8,39.6-39.6v-98.9
			C464.2,196.8,444.5,177,424.7,177z"/>
	</g>
</g>
</svg>
