<?xml version="1.0" encoding="utf-8"?>
<!-- Generator: Adobe Illustrator 24.3.0, SVG Export Plug-In . SVG Version: 6.00 Build 0)  -->
<svg version="1.1" id="Capa_1" xmlns="http://www.w3.org/2000/svg" xmlns:xlink="http://www.w3.org/1999/xlink" x="0px" y="0px"
	 viewBox="0 0 512 512" style="enable-background:new 0 0 512 512;" xml:space="preserve">
<style type="text/css">
	.st0{fill:#0033A0;}
</style>
<g>
	<g>
		<path class="st0" d="M376,33c-60.7,0-99.6,42-120,79.8C235.6,75,196.7,33,136,33C59,33,0,95.4,0,178.3c0,21.6,4.3,41.6,12.3,60.7
			h114.4l25.9-51.7c5.1-10.2,21.7-10.2,26.8,0l46.6,93.2l16.6-33.2c5.1-10.2,21.7-10.2,26.8,0l16.6,33.2l46.6-93.2
			c5.1-10.2,21.7-10.2,26.8,0l25.9,51.7h114.4c8-19.2,12.3-39.1,12.3-60.7C512,95.4,453,33,376,33z"/>
	</g>
</g>
<g>
	<g>
		<path class="st0" d="M376,269c-5.7,0-10.9-3.2-13.4-8.3L346,227.5l-46.6,93.2c-2.5,5.1-7.7,8.3-13.4,8.3s-10.9-3.2-13.4-8.3
			L256,287.5l-16.6,33.2c-5.1,10.2-21.7,10.2-26.8,0L166,227.5l-16.6,33.2c-2.5,5.1-7.7,8.3-13.4,8.3H28
			c30.9,48.6,86.5,94.7,156,153.4c19.5,16.5,40.3,34,62.1,52.9c2.8,2.4,6.3,3.7,9.8,3.7s7-1.2,9.8-3.7
			c21.8-18.9,42.6-36.4,62.1-52.9c69.6-58.7,125.2-104.8,156-153.4H376z"/>
	</g>
</g>
</svg>
